# xmcd
#
# Track frame offsets:
#	150
#	11405
#	22740
#	32980
#	46515
#	59034
#	68984
#	79957
#	92933
#	106143
#	117247
#	130845
#	144149
#	156371
#	171566
#	185222
#	199492
#	213027
#	225146
#	238060
#	250190
#	264290
#	276039
#	289498
#	303066
#
# Disc length: 4247 seconds
# Revision: 0
# Processed by: cddbd v1.5.2PL0 Copyright (c) Steve Scherf et al.
# Submitted via: dBpowerAMP V12.0
#
DISCID=5f109519
DTITLE=Various Artist - The Blues [CD3 - Blues Legends)r
DYEAR=1991
DGENRE=Blues
TTITLE0=John Lee Hooker - Boom Boom
TTITLE1=Lightnin' Slim - Rooster Blues
TTITLE2=Willie Dixon and Memphis Slim - That's All I Want Baby
TTITLE3=Muddy Waters - I'm A King Bee
TTITLE4=Jimmy Rogers - Walking By Myself
TTITLE5=Jimmy Reed - Ain't That Lovin' You Baby
TTITLE6=Screamin' Jay Hawkins - I Put A Spell On You
TTITLE7=Little Walter - Mean Old World
TTITLE8=Muddy Waters - Mannish Boy
TTITLE9=Bo Diddley - Bo Diddley
TTITLE10=Guitar Slim - The Things That I Used To Do
TTITLE11=J. B. Lenoir - The Mojo
TTITLE12=Little Walter - Juke
TTITLE13=Big Joe Turner - Chains Of Love
TTITLE14=Sonny Boy Williamson (II) - Eyesight To The Blind
TTITLE15=Elmore James - Dust My Broom (I Believe My Time Ain't Long)
TTITLE16=B. B. King - 3 O'Clock Blues
TTITLE17=Howlin' Wolf - How Many More Years
TTITLE18=Lightnin' Hopkins - Baby, Please Don't Go
TTITLE19=Muddy Waters - I Can't Be Satisfied
TTITLE20=John Lee Hooker - Boggie Chillen'
TTITLE21=Arthur "Big Boy" Crudup - Mean Old Frisco Blues
TTITLE22=Sonny Boy Williamson (I) - Good Morning, School Girl
TTITLE23=Robert Johnson - Sweet Home Chicago
TTITLE24=Bessie Smith - Downhearted Blues
EXTD=
EXTT0=
EXTT1=
EXTT2=
EXTT3=
EXTT4=
EXTT5=
EXTT6=
EXTT7=
EXTT8=
EXTT9=
EXTT10=
EXTT11=
EXTT12=
EXTT13=
EXTT14=
EXTT15=
EXTT16=
EXTT17=
EXTT18=
EXTT19=
EXTT20=
EXTT21=
EXTT22=
EXTT23=
EXTT24=
PLAYORDER=
